# AST/ASF file generated using VICON BodyLanguage
# -----------------------------------------------
:version 1.10
:name VICON
:units
  mass 1.0
  length 0.45
  angle deg
:documentation
   .ast/.asf automatically generated from VICON data using
   VICON BodyBuilder and BodyLanguage model FoxedUp or BRILLIANT.MOD
:root
   order TX TY TZ RX RY RZ
   axis XYZ
   position 0 0 0  
   orientation 0 0 0 
:bonedata
  begin
     id 1 
     name lhipjoint
     direction 0.584852 -0.759097 0.285867 
     length 2.43633 
     axis 0 0 0  XYZ
  end
  begin
     id 2 
     name lfemur
     direction 0.34202 -0.939693 0  
     length 7.14704  
     axis 0 0 20  XYZ
    dof rx ry rz
    limits (-160.0 20.0)
           (-70.0 70.0)
           (-60.0 70.0)
  end
  begin
     id 3 
     name ltibia
     direction 0.342022 -0.939692 0   
     length 7.68483   
     axis 0 0 20   XYZ
    dof rx
    limits (-10.0 170.0)
  end
  begin
     id 4 
     name lfoot
     direction 0.0999605 -0.274639 0.956337   
     length 2.40452   
     axis -90 7.62852e-016 20   XYZ
    dof rx rz
    limits (-45.0 90.0)
           (-70.0 20.0)
  end
  begin
     id 5 
     name ltoes
     direction 1.53468e-011 -4.21881e-011 1   
     length 1.19837   
     axis -90 7.62852e-016 20   XYZ
    dof rx
    limits (-90.0 20.0)
  end
  begin
     id 6 
     name rhipjoint
     direction -0.569886 -0.769002 0.289597   
     length 2.40495  
     axis 0 0 0  XYZ 
  end
  begin
     id 7 
     name rfemur
     direction -0.34202 -0.939693 0   
     length 7.45086   
     axis 0 0 -20   XYZ
    dof rx ry rz
    limits (-160.0 20.0)
           (-70.0 70.0)
           (-70.0 60.0)
  end
  begin
     id 8 
     name rtibia
     direction -0.34202 -0.939693 0   
     length 7.76831   
     axis 0 0 -20   XYZ
    dof rx
    limits (-10.0 170.0)
 end
 begin
     id 9 
     name rfoot
     direction -0.0798572 -0.219406 0.97236   
     length 2.35911  
     axis -90 -7.62852e-016 -20   XYZ
    dof rx rz
    limits (-45.0 90.0)
           (-20.0 70.0)
  end
  begin
     id 10 
     name rtoes
     direction -1.53469e-011 -4.21728e-011 1   
     length 1.18261   
     axis -90 -7.62852e-016 -20   XYZ
    dof rx
    limits (-90.0 20.0)
  end
  begin
     id 11 
     name lowerback
     direction 0.0242088 0.999437 0.0232389   
     length 2.1561   
     axis 0 0 0   XYZ
    dof rx ry rz
    limits (-20.0 45.0)
           (-30.0 30.0)
           (-30.0 30.0)
  end
  begin
     id 12 
     name upperback
     direction -0.0356893 0.999013 -0.0264323   
     length 2.14431   
     axis 0 0 0   XYZ
    dof rx ry rz
    limits (-20.0 45.0)
           (-30.0 30.0)
           (-30.0 30.0)
  end
  begin
     id 13 
     name thorax
     direction -0.0472163 0.998194 -0.0371284   
     length 2.16169   
     axis 0 0 0   XYZ
    dof rx ry rz
    limits (-20.0 45.0)
           (-30.0 30.0)
           (-30.0 30.0)
  end
  begin
     id 14 
     name lowerneck
     direction 0.00863244 0.999921 0.00911972   
     length 1.58651   
     axis 0 0 0   XYZ
    dof rx ry rz
    limits (-20.0 45.0)
           (-30.0 30.0)
           (-30.0 30.0)
  end
  begin
     id 15 
     name upperneck
     direction 0.149523 0.979068 -0.138086   
     length 1.57486   
     axis 0 0 0   XYZ
    dof rx ry rz
    limits (-20.0 45.0)
           (-30.0 30.0)
           (-30.0 30.0)
  end
  begin
     id 16
     name head
     direction 0.0445219 0.997708 -0.0509576  
     length 1.6019  
     axis 0 0 0   XYZ
    dof rx ry rz
    limits (-20.0 45.0)
           (-30.0 30.0)
           (-30.0 30.0)
  end
  begin
     id 17 
     name lclavicle
     direction 0.911271 0.381667 -0.154644  
     length 3.80848  
     axis 0 0 0   XYZ
    dof ry rz
    limits (-20.0 10.0)
           (0.0 20.0)
  end
  begin
     id 18 
     name lhumerus
     direction 1 -4.49003e-011 2.1308e-027   
     length 5.19069   
     axis 180 -30 -90   XYZ
    dof rx ry rz
    limits (-60.0 90.0)
           (-90.0 90.0)
           (-90.0 90.0)
  end
  begin
     id 19
     name lradius
     direction 1 -4.48914e-011 4.01554e-027   
     length 3.30016   
     axis 180 -30 -90   XYZ
    dof rx
    limits (-10.0 170.0)
  end
  begin
     id 20
     name lwrist
     direction 1 -4.49003e-011 1.1934e-026   
     length 1.65008   
     axis -8.46377e-015 90 90   XYZ
    dof ry
    limits (-180.0 0.0)
 end
  begin
     id 21 
     name lhand
     direction 1 -4.49034e-011 2.38659e-026   
     length 0.707698   
     axis -1.52313e-014 90 90   XYZ
    dof rx rz
    limits (-90.0 90.0)
           (-45.0 45.0)
  end
  begin
     id 22 
     name lfingers
     direction 1 -4.48691e-011 4.77775e-026   
     length 0.570564   
     axis -3.04623e-014 90 90   XYZ
    dof rx
    limits (0.0 90.0)
  end
  begin
     id 23
     name lthumb
     direction 0.707107 -6.34832e-011 0.707107   
     length 0.819219   
     axis -90 45 -1.62303e-014   XYZ
    dof rx rz
    limits (-45.0 45.0)
           (-45.0 45.0)
  end
  begin
     id 24 
     name rclavicle
     direction -0.815579 0.573708 -0.0754329   
     length 3.54371  
     axis 0 0 0   XYZ 
    dof ry rz
    limits (-10.0 20.0)
           (-20.0 0.0)
  end
  begin
     id 25 
     name rhumerus
     direction -1 -4.48956e-011 3.05351e-028  
     length 5.23924   
     axis 180 30 90   XYZ
    dof rx ry rz
    limits (-90.0 60.0)
           (-90.0 90.0)
           (-90.0 90.0)
  end
  begin
     id 26 
     name rradius
     direction -1 -4.49013e-011 3.53849e-027   
     length 3.32953   
     axis 180 30 90   XYZ
    dof rx
    limits (-10.0 170.0)
  end
  begin
     id 27 
     name rwrist
     direction -1 -4.48901e-011 1.19374e-026   
     length 1.66477   
     axis -8.46377e-015 -90 -90   XYZ
    dof ry
    limits (-180.0 0.0)
  end
  begin
     id 28
     name rhand
     direction -1 -4.48877e-011 2.38764e-026   
     length 0.607414   
     axis -1.52313e-014 -90 -90   XYZ
    dof rx rz
    limits (-90.0 90.0)
           (-45.0 45.0)
  end
  begin
     id 29
     name rfingers
     direction -1 -4.48882e-011 4.77521e-026   
     length 0.489712   
     axis -3.04623e-014 -90 -90   XYZ
    dof rx
    limits (0.0 90.0)
  end
  begin
     id 30
     name rthumb
     direction -0.707107 -6.34974e-011 0.707107   
     length 0.703132   
     axis -90 -45 1.62303e-014   XYZ
    dof rx rz
    limits (-45.0 45.0)
           (-45.0 45.0)
  end
:hierarchy
  begin
    root lhipjoint rhipjoint lowerback
    lhipjoint lfemur
    lfemur ltibia
    ltibia lfoot
    lfoot ltoes
    rhipjoint rfemur
    rfemur rtibia
    rtibia rfoot
    rfoot rtoes
    lowerback upperback
    upperback thorax
    thorax lowerneck lclavicle rclavicle
    lowerneck upperneck
    upperneck head
    lclavicle lhumerus
    lhumerus lradius
    lradius lwrist
    lwrist lhand lthumb
    lhand lfingers
    rclavicle rhumerus
    rhumerus rradius
    rradius rwrist
    rwrist rhand rthumb
    rhand rfingers
  end

#!OML:ASF E:\VariousWalksJay\Project 1\Capture day 1\Session 1\Actor2.ASF
:FULLY-SPECIFIED
:DEGREES
42
root 25.3597 16.6451 47.2177 172.19 -63.9412 -171.353
lowerback -2.02171 1.37646 5.23905
upperback 4.94647 1.57938 -2.06457
thorax 6.52026 1.06312 -4.99299
lowerneck -11.1418 -1.68742 -0.212661
upperneck 7.56911 -3.67733 11.5419
head 4.33803 -1.27035 3.33233
rclavicle 1.09332e-014 -1.51076e-014
rhumerus -33.9171 2.40511 -86.4538
rradius 38.8976
rwrist -3.18089
rhand -10.7473 -7.1658
rfingers 7.12502
rthumb 15.2639 -36.5826
lclavicle 1.09332e-014 -1.51076e-014
lhumerus -20.644 -17.3494 83.9775
lradius 25.6447
lwrist 9.237
lhand -6.23799 -9.71612
lfingers 7.12502
lthumb 19.6036 19.3155
rfemur -13.328 -3.05772 24.5109
rtibia 34.1693
rfoot -14.1315 -14.5809
rtoes -25.7671
lfemur -8.43169 9.94134 -16.9448
ltibia 27.0892
lfoot -16.0395 15.8522
ltoes -22.2337
43
root 25.3573 16.6454 47.2153 172.193 -63.9697 -171.358
lowerback -2.02295 1.3638 5.24454
upperback 4.94021 1.5626 -2.06772
thorax 6.51241 1.05493 -5.00082
lowerneck -11.0845 -1.69146 -0.224749
upperneck 7.47741 -3.67089 11.5563
head 4.30051 -1.27253 3.33907
rclavicle 2.32578e-014 -1.19271e-014
rhumerus -33.9248 2.36412 -86.4414
rradius 38.8333
rwrist -3.15815
rhand -10.871 -7.17983
rfingers 7.12502
rthumb 15.1448 -36.6057
lclavicle 2.32578e-014 -1.19271e-014
lhumerus -20.6273 -17.3394 83.9911
lradius 25.7074
lwrist 9.24818
lhand -6.24906 -9.73517
lfingers 7.12502
lthumb 19.5929 19.2975
rfemur -13.3102 -3.03659 24.5104
rtibia 34.1635
rfoot -14.0947 -14.6614
rtoes -26.0111
lfemur -8.42229 9.91314 -16.9491
ltibia 27.0796
lfoot -16.0358 15.8665
ltoes -22.3425
44
root 25.3547 16.6457 47.2126 172.192 -63.9954 -171.359
lowerback -2.02921 1.34697 5.23853
upperback 4.94013 1.53975 -2.05971
thorax 6.51239 1.04311 -4.99069
lowerneck -11.0312 -1.68795 -0.256016
upperneck 7.37709 -3.65054 11.5746
head 4.26057 -1.26829 3.35118
rclavicle 4.37326e-015 4.77083e-015
rhumerus -33.9281 2.34423 -86.4197
rradius 38.7792
rwrist -3.13647
rhand -10.9422 -7.19933
rfingers 7.12502
rthumb 15.0762 -36.6303
lclavicle 4.37326e-015 4.77083e-015
lhumerus -20.6107 -17.3044 84.0131
lradius 25.766
lwrist 9.25241
lhand -6.25817 -9.75371
lfingers 7.12502
lthumb 19.5842 19.2799
rfemur -13.2883 -3.01145 24.5135
rtibia 34.1575
rfoot -14.0619 -14.7404
rtoes -26.242
lfemur -8.40714 9.88464 -16.9473
ltibia 27.0714
lfoot -16.046 15.8668
ltoes -22.4255
45
root 25.352 16.6458 47.2097 172.184 -64.0149 -171.357
lowerback -2.02775 1.3323 5.24236
upperback 4.93676 1.52006 -2.05771
thorax 6.50545 1.03328 -4.99239
lowerneck -10.977 -1.68047 -0.282339
upperneck 7.278 -3.62714 11.6015
head 4.2208 -1.26212 3.36534
rclavicle 2.28602e-014 2.3059e-014
rhumerus -33.9431 2.31759 -86.411
rradius 38.7302
rwrist -3.10726
rhand -10.9835 -7.22152
rfingers 7.12502
rthumb 15.0364 -36.6555
lclavicle 2.28602e-014 2.3059e-014
lhumerus -20.6094 -17.2873 84.0281
lradius 25.8259
lwrist 9.2643
lhand -6.26212 -9.76941
lfingers 7.12502
lthumb 19.5804 19.2646
rfemur -13.2613 -2.99452 24.5197
rtibia 34.1506
rfoot -14.0269 -14.804
rtoes -26.4656
lfemur -8.38765 9.86771 -16.9405
ltibia 27.0677
lfoot -16.0657 15.865
ltoes -22.4729
46
root 25.3489 16.6458 47.2064 172.171 -64.0199 -171.355
lowerback -2.03682 1.32122 5.22971
upperback 4.94379 1.50432 -2.04077
thorax 6.51502 1.02473 -4.96836
lowerneck -10.9327 -1.66976 -0.325703
upperneck 7.18063 -3.59618 11.6243
head 4.18289 -1.25228 3.38153
rclavicle 2.66371e-014 1.19271e-014
rhumerus -33.9512 2.31159 -86.3876
rradius 38.6881
rwrist -3.07398
rhand -11.0134 -7.24566
rfingers 7.12502
rthumb 15.0076 -36.6818
lclavicle 2.66371e-014 1.19271e-014
lhumerus -20.6013 -17.2524 84.0595
lradius 25.8773
lwrist 9.27022
lhand -6.26506 -9.78339
lfingers 7.12502
lthumb 19.5775 19.2509
rfemur -13.227 -2.97996 24.5283
rtibia 34.1436
rfoot -13.9827 -14.8572
rtoes -26.7266
lfemur -8.35805 9.86124 -16.9268
ltibia 27.0695
lfoot -16.1077 15.8504
ltoes -22.4804
47
root 25.3455 16.6457 47.2032 172.153 -64.0096 -171.35
lowerback -2.04596 1.31403 5.22259
upperback 4.95327 1.49325 -2.02148
thorax 6.52804 1.01882 -4.94462
lowerneck -10.9048 -1.65832 -0.371755
upperneck 7.1028 -3.56591 11.6432
head 4.15367 -1.2416 3.39698
rclavicle 1.74931e-014 -5.56597e-015
rhumerus -33.9565 2.31379 -86.3665
rradius 38.6431
rwrist -3.02445
rhand -11.03 -7.26979
rfingers 7.12502
rthumb 14.9916 -36.7071
lclavicle 1.74931e-014 -5.56597e-015
lhumerus -20.5969 -17.2187 84.094
lradius 25.9235
lwrist 9.27932
lhand -6.26629 -9.79278
lfingers 7.12502
lthumb 19.5764 19.2416
rfemur -13.1889 -2.96696 24.5393
rtibia 34.1361
rfoot -13.9578 -14.8868
rtoes -26.9078
lfemur -8.32555 9.86834 -16.9077
ltibia 27.0777
lfoot -16.151 15.8337
ltoes -22.4979
48
root 25.342 16.6455 47.2002 172.148 -63.9958 -171.36
lowerback -2.05735 1.31101 5.20916
upperback 4.96276 1.48805 -2.0033
thorax 6.54292 1.01557 -4.91795
lowerneck -10.8941 -1.65165 -0.405646
upperneck 7.05159 -3.54548 11.6469
head 4.13552 -1.23444 3.40501
rclavicle 2.28602e-014 -4.77083e-015
rhumerus -33.9638 2.31235 -86.3463
rradius 38.5936
rwrist -2.94797
rhand -11.1657 -7.29828
rfingers 7.12502
rthumb 14.8609 -36.7453
lclavicle 2.28602e-014 -4.77083e-015
lhumerus -20.595 -17.192 84.1319
lradius 25.9593
lwrist 9.28534
lhand -6.26137 -9.80598
lfingers 7.12502
lthumb 19.5811 19.2279
rfemur -13.1521 -2.96349 24.5419
rtibia 34.1292
rfoot -13.9335 -14.9011
rtoes -27.0653
lfemur -8.29505 9.88702 -16.8972
ltibia 27.0894
lfoot -16.1987 15.8181
ltoes -22.4904
